<?xml version="1.0" encoding="UTF-8" standalone="no"?>
<svg
   xmlns:dc="http://purl.org/dc/elements/1.1/"
   xmlns:cc="http://creativecommons.org/ns#"
   xmlns:rdf="http://www.w3.org/1999/02/22-rdf-syntax-ns#"
   xmlns:svg="http://www.w3.org/2000/svg"
   xmlns="http://www.w3.org/2000/svg"
   xmlns:sodipodi="http://sodipodi.sourceforge.net/DTD/sodipodi-0.dtd"
   xmlns:inkscape="http://www.inkscape.org/namespaces/inkscape"
   id="svg942"
   version="1.1"
   viewBox="0 0 142 20"
   height="20mm"
   width="142mm"
   sodipodi:docname="logo.svg"
   inkscape:version="1.0 (4035a4fb49, 2020-05-01)">
  <sodipodi:namedview
     inkscape:document-rotation="0"
     pagecolor="#ffffff"
     bordercolor="#666666"
     borderopacity="1"
     objecttolerance="10"
     gridtolerance="10"
     guidetolerance="10"
     inkscape:pageopacity="0"
     inkscape:pageshadow="2"
     inkscape:window-width="1920"
     inkscape:window-height="1051"
     id="namedview12"
     showgrid="false"
     inkscape:zoom="1.9545628"
     inkscape:cx="268.34646"
     inkscape:cy="37.795276"
     inkscape:window-x="-9"
     inkscape:window-y="-9"
     inkscape:window-maximized="1"
     inkscape:current-layer="svg942" />
  <defs
     id="defs936" />
  <metadata
     id="metadata939">
    <rdf:RDF>
      <cc:Work
         rdf:about="">
        <dc:format>image/svg+xml</dc:format>
        <dc:type
           rdf:resource="http://purl.org/dc/dcmitype/StillImage" />
        <dc:title />
      </cc:Work>
    </rdf:RDF>
  </metadata>
  <g
     id="layer1"
     style="fill:#ffffff">
    <g
       transform="translate(-12.630487,-155.2016)"
       id="g1601"
       style="fill:#ffffff">
      <g
         style="font-style:normal;font-weight:normal;font-size:25.4px;line-height:1.25;font-family:sans-serif;fill:#ffffff;fill-opacity:1;stroke:none;stroke-width:0.264583"
         id="text918-7-7"
         aria-label="MAHAWK">
        <path
           id="path836"
           style="font-style:normal;font-variant:normal;font-weight:normal;font-stretch:normal;font-size:25.4px;font-family:Acre;-inkscape-font-specification:Acre;fill:#ffffff;fill-opacity:1;stroke-width:0.264583"
           d="m 65.72514,173.70427 -4.0894,-18.0594 h -0.3556 l -5.588,13.5128 -5.6134,-13.5128 h -0.3556 l -3.9116,18.0594 h 2.4892 l 2.3114,-11.2776 4.9022,11.4808 h 0.3302 l 4.9784,-11.6078 2.4638,11.4046 z" />
        <path
           id="path838"
           style="font-style:normal;font-variant:normal;font-weight:normal;font-stretch:normal;font-size:25.4px;font-family:Acre;-inkscape-font-specification:Acre;fill:#ffffff;fill-opacity:1;stroke-width:0.264583"
           d="m 79.48162,173.70427 h 2.6416 l -7.874,-18.034 h -0.3556 l -7.8486,18.034 h 2.667 l 1.5748,-3.7846 h 7.62 z m -8.2296,-6.1214 2.8448,-6.858 2.8448,6.858 z" />
        <path
           id="path840"
           style="font-style:normal;font-variant:normal;font-weight:normal;font-stretch:normal;font-size:25.4px;font-family:Acre;-inkscape-font-specification:Acre;fill:#ffffff;fill-opacity:1;stroke-width:0.264583"
           d="m 95.326457,155.92427 v 7.6454 h -8.7884 v -7.6454 h -2.413 v 17.78 h 2.413 v -7.7978 h 8.7884 v 7.7978 h 2.413 v -17.78 z" />
        <path
           id="path842"
           style="font-style:normal;font-variant:normal;font-weight:normal;font-stretch:normal;font-size:25.4px;font-family:Acre;-inkscape-font-specification:Acre;fill:#ffffff;fill-opacity:1;stroke-width:0.264583"
           d="m 113.11677,173.70427 h 2.6416 l -7.87399,-18.034 h -0.3556 l -7.848605,18.034 h 2.667005 l 1.5748,-3.7846 h 7.61999 z m -8.22959,-6.1214 2.8448,-6.858 2.84479,6.858 z" />
        <path
           id="path844"
           style="font-style:normal;font-variant:normal;font-weight:normal;font-stretch:normal;font-size:25.4px;font-family:Acre;-inkscape-font-specification:Acre;fill:#ffffff;fill-opacity:1;stroke-width:0.264583"
           d="m 136.58677,155.89887 -6.3246,13.6398 -2.7178,-5.7912 3.6576,-7.8232 -2.54,-0.0254 -2.3622,5.4102 -2.3622,-5.4102 -2.5146,0.0254 3.6322,7.7978 -2.7178,5.7912 -6.3246,-13.6144 -2.6416,0.0254 8.7376,18.1864 h 0.4064 l 3.7846,-8.0518 3.7846,8.0518 h 0.381 l 8.7376,-18.1864 z" />
        <path
           id="path846"
           style="font-style:normal;font-variant:normal;font-weight:normal;font-stretch:normal;font-size:25.4px;font-family:Acre;-inkscape-font-specification:Acre;fill:#ffffff;fill-opacity:1;stroke-width:0.264583"
           d="m 152.92492,173.70427 -7.3152,-8.6614 7.0866,-9.1186 h -2.8702 l -6.8326,8.8138 v -8.8138 h -2.413 v 17.78 h 2.413 v -8.2042 l 6.9088,8.2042 z" />
      </g>
      <g
         style="font-style:normal;font-weight:normal;font-size:10.5833px;line-height:1.25;font-family:sans-serif;fill:#ffffff;fill-opacity:1;stroke:none;stroke-width:0.264583"
         id="text914-1-1-4"
         aria-label="T">
        <path
           id="path849"
           style="font-style:normal;font-variant:normal;font-weight:normal;font-stretch:normal;font-size:25.4px;font-family:Acre;-inkscape-font-specification:Acre;fill:#ffffff;fill-opacity:1;stroke-width:0.264583"
           d="M 24.548579,155.92885 H 13.24558 v 2.3622 h 4.495799 v 15.4178 h 2.413 v -15.4178 h 4.3942 z" />
      </g>
      <path
         id="path4485-2-6-9-0-1"
         d="m 40.50555,164.13293 c -0.11084,0.98777 -0.32083,1.61654 -0.59357,2.32392 0,0 2.36321,1.39261 2.72966,3.18845 0.29102,1.42669 -1.3899,2.5285 -4.29656,1.30454 -3.04463,-1.28173 -5.06645,-3.48717 -5.58958,-5.99326 -1.68295,0.10139 -2.2474,0.65608 -2.2474,0.65608 0,0 1.382,4.94138 7.10659,7.53898 5.58034,2.53231 11.45915,-2.97441 2.89086,-9.01871 z m -4.59662,-6.09267 c 2.16182,-0.424 3.41671,7.22155 -0.40867,10.49285 0,0 0.75704,0.93337 1.84913,1.39621 0,0 3.26205,-3.01799 2.76285,-8.6726 -0.49874,-5.65508 -4.08703,-5.7174 -5.57108,-5.05678 -1.4847,0.65996 -3.65239,2.68836 -4.17349,6.17597 0.88165,-0.31317 1.30251,-0.38451 2.50117,-0.46174 0,0 0.69381,-3.41376 3.04009,-3.87391 z m -8.71864,12.09903 c -1.53823,-2.72401 3.38871,-7.35518 9.95161,-5.05179 0,0 0.34747,-0.90581 0.42063,-2.22866 0,0 -6.27617,-1.81911 -10.44494,1.63011 -2.81117,2.32599 -3.18212,5.91406 -0.85232,8.01695 1.89248,1.70982 5.23491,1.60711 8.40661,-0.45627 -0.72089,-0.53218 -1.13745,-0.86589 -1.75495,-1.55836 0,0 -4.18841,2.37337 -5.72664,-0.35198 z"
         style="fill:#ffffff;fill-opacity:1;stroke-width:0.225778" />
    </g>
  </g>
</svg>
